:version 1.10
:name ASF
:units
  mass 1
  length 1
  angle deg
:documentation
  ASF file generated by Kaydara
:root
  axis xyz
  order  tx ty tz rx ry rz
  position 0 0 0
  orientation 0 0 0
:bonedata
  begin
    id 1
    name RightUpLegDummy
    direction -1 2.30186e-007 8.31532e-007
    length 4.04083
    axis 0 0 0 xyz
  end
  begin
    id 2
    name RightUpLeg
    direction -0.000919234 -0.999985 0.00544864
    length 17.4221
    axis -3.80308 -0.00076134 -0.0523649 xyz
    dof rx ry rz
  end
  begin
    id 3
    name RightLeg
    direction -0.000919271 -0.999984 -0.00555045
    length 17.1239
    axis 4.00314 0.0181274 -0.183583 xyz
    dof rx ry rz
  end
  begin
    id 4
    name RightFoot
    direction -2.57843e-005 -4.04509e-007 1
    length 6.72091
    axis 8.18909e-005 -0.122003 -0.403008 xyz
    dof rx ry rz
  end
  begin
    id 5
    name RightToes
    direction 0.00116825 -0.014069 0.9999
    length 3.85082
    axis 0.000514414 0.540638 -0.356797 xyz
    dof rx ry rz
  end
  begin
    id 6
    name SpineDummy
    direction 0.0168869 0.966876 -0.254689
    length 6.99894
    axis 0 0 0 xyz
  end
  begin
    id 7
    name Spine
    direction -0.0132008 0.999903 0.00446247
    length 11.1999
    axis -0.00148109 0.00725429 0.756411 xyz
    dof rx ry rz
  end
  begin
    id 8
    name Spine1
    direction 0 0 0
    length 0
    axis -0.000934958 0.0245693 1.46543 xyz
    dof rx ry rz
  end
  begin
    id 9
    name HEadDummy
    direction -0.0255732 0.999672 0.00128215
    length 3.43865
    axis -0.000934958 0.0245693 1.46543 xyz
  end
  begin
    id 10
    name HEad
    direction -0.0472656 0.980052 0.19304
    length 5.12695
    axis -0.000934954 0.0245693 1.46543 xyz
    dof rx ry rz
  end
  begin
    id 11
    name LeftShoulder1Dummy
    direction 0.953098 0.301717 -0.023914
    length 3.68488
    axis -0.000934958 0.0245693 1.46543 xyz
  end
  begin
    id 12
    name LeftShoulder1
    direction 0.962466 0.271167 0.0112566
    length 3.13809
    axis -0.000934958 0.0245693 1.46543 xyz
    dof rx ry rz
  end
  begin
    id 13
    name LeftArm
    direction 0.999943 0.00455037 -0.00961766
    length 11.3419
    axis -23.1648 0.685459 1.22814 xyz
    dof rx ry rz
  end
  begin
    id 14
    name LeftForeArm
    direction 0.999332 0.0131969 0.0340885
    length 8.70632
    axis -9.90633 0.618216 0.0826942 xyz
    dof rx ry rz
  end
  begin
    id 15
    name LeftHand
    direction 0.994373 -0.0366703 0.0993905
    length 5.32135
    axis 0.00675269 0.680415 0.445699 xyz
    dof rx ry rz
  end
  begin
    id 16
    name RightShoulderDummy
    direction -0.967298 0.252589 -0.0230903
    length 3.68488
    axis -0.000934958 0.0245693 1.46543 xyz
  end
  begin
    id 17
    name RightShoulder
    direction -0.975062 0.221602 0.0120823
    length 3.13809
    axis 0.216257 0.0246515 1.45863 xyz
    dof rx ry rz
  end
  begin
    id 18
    name RightArm
    direction -0.99886 -0.00851186 -0.0469687
    length 10.3947
    axis -23.196 0.23503 -0.532632 xyz
    dof rx ry rz
  end
  begin
    id 19
    name RightForeArm
    direction -0.99909 0.00114866 0.0426317
    length 8.68355
    axis -9.91764 -0.134943 0.610517 xyz
    dof rx ry rz
  end
  begin
    id 20
    name RightHand
    direction -0.992888 -0.0489538 0.10852
    length 5.28593
    axis -0.00275396 -0.197403 0.246414 xyz
    dof rx ry rz
  end
  begin
    id 21
    name LeftUpLegDummy
    direction 1 -2.30186e-007 -8.31532e-007
    length 4.04083
    axis 0 0 0 xyz
  end
  begin
    id 22
    name LeftUpLeg
    direction -0.000920097 -1 2.79241e-006
    length 17.4221
    axis -3.48782 0.00143434 -0.0532288 xyz
    dof rx ry rz
  end
  begin
    id 23
    name LeftLeg
    direction -0.000920097 -1 2.7912e-006
    length 17.1239
    axis 3.68162 -0.00806512 -0.0529896 xyz
    dof rx ry rz
  end
  begin
    id 24
    name LeftFoot
    direction -2.57845e-005 -3.987e-007 1
    length 6.72091
    axis 3.02372e-005 -0.00147829 -0.214229 xyz
    dof rx ry rz
  end
  begin
    id 25
    name LeftToes
    direction 0.00813577 -0.00488255 0.999955
    length 3.85048
    axis 3.89895e-005 -0.0014783 -0.214229 xyz
    dof rx ry rz
  end
:hierarchy
  begin
    root RightUpLegDummy SpineDummy LeftUpLegDummy
    RightUpLegDummy RightUpLeg
    RightUpLeg RightLeg
    RightLeg RightFoot
    RightFoot RightToes
    SpineDummy Spine
    Spine Spine1
    Spine1 HEadDummy LeftShoulder1Dummy RightShoulderDummy
    HEadDummy HEad
    LeftShoulder1Dummy LeftShoulder1
    LeftShoulder1 LeftArm
    LeftArm LeftForeArm
    LeftForeArm LeftHand
    RightShoulderDummy RightShoulder
    RightShoulder RightArm
    RightArm RightForeArm
    RightForeArm RightHand
    LeftUpLegDummy LeftUpLeg
    LeftUpLeg LeftLeg
    LeftLeg LeftFoot
    LeftFoot LeftToes
  end

:SAMPLES-PER-SECOND 30
:FULLY-SPECIFIED
:DEGREES
1
root  -14.9619 34.6157 -16.5472 -170.746 -0.930771 -179.704
RightUpLeg  -8.86661 -14.7687 0.306312
RightLeg  5.51439 -1.354 -0.0421542
RightFoot  4.27072 0.00828802 0.0308172
RightToes  -23.1302 -0.111275 -0.199671
Spine  -2.16126 -0.253343 -0.266895
Spine1  -4.41961 -0.416993 -0.0351141
HEad  -68.3772 -1.35109 10.8505
LeftShoulder1  -1.94126e-019 -3.10601e-018 -2.51263e-017
LeftArm  -12.8342 23.8248 -80.991
LeftForeArm  31.4578 -19.4064 -3.13003
LeftHand  -0.452001 -1.14852 8.29122
RightShoulder  -4.96962e-017 0 -2.36833e-017
RightArm  -38.9979 -21.0777 74.8777
RightForeArm  61.5697 11.5353 1.4994
RightHand  -0.452049 -0.712793 -11.2311
LeftUpLeg  -7.21852 4.44466 3.79171
LeftLeg  5.35125 13.4242 0.386943
LeftFoot  5.43095 -0.0492621 1.39874
LeftToes  -21.0716 1.70063e-006 7.6642e-008
2
root  -14.9768 34.6157 -16.5598 -170.683 -0.790604 -179.702
RightUpLeg  -8.87193 -14.7786 0.317145
RightLeg  5.38549 -1.27959 -0.0369115
RightFoot  4.33771 0.00828802 0.0308172
RightToes  -23.1564 -0.111275 -0.199671
Spine  -2.17745 -0.241175 -0.266894
Spine1  -4.45093 -0.395445 -0.0351143
HEad  -68.1048 -1.47096 11.0977
LeftShoulder1  -1.94126e-019 -3.10601e-018 -2.51263e-017
LeftArm  -12.7823 23.8728 -81.0465
LeftForeArm  31.4492 -19.6646 -3.16021
LeftHand  -0.454571 -1.22267 8.20712
RightShoulder  -4.96962e-017 0 -2.36833e-017
RightArm  -38.9152 -21.2178 75.0293
RightForeArm  61.3872 11.6797 1.48957
RightHand  -0.454833 -0.638978 -11.1557
LeftUpLeg  -7.23473 4.49266 3.75597
LeftLeg  5.34863 13.5215 0.389089
LeftFoot  5.41412 -0.0492621 1.39874
LeftToes  -21.0703 1.70063e-006 7.6642e-008
3
root  -14.985 34.6157 -16.5718 -170.644 -0.650177 -179.682
RightUpLeg  -8.89955 -14.7192 0.321468
RightLeg  5.36552 -1.20253 -0.0342106
RightFoot  4.35508 0.00791948 0.0360835
RightToes  -23.2403 -0.111275 -0.199671
Spine  -2.19794 -0.219433 -0.26402
Spine1  -4.49058 -0.355009 -0.0265795
HEad  -67.7707 -1.66206 11.1445
LeftShoulder1  -1.94126e-019 -3.10601e-018 -2.51263e-017
LeftArm  -12.7982 23.9461 -81.0793
LeftForeArm  31.5469 -19.6902 -3.15673
LeftHand  -0.455185 -1.24127 8.18726
RightShoulder  -4.96962e-017 0 -2.36833e-017
RightArm  -38.8257 -21.3835 75.1068
RightForeArm  61.1854 11.8863 1.47361
RightHand  -0.4575 -0.581112 -11.0817
LeftUpLeg  -7.21907 4.61026 3.74767
LeftLeg  5.33125 13.5451 0.385685
LeftFoot  5.37087 -0.0487798 1.39125
LeftToes  -20.9633 1.70063e-006 7.6642e-008
4
root  -14.9949 34.6134 -16.592 -170.582 -0.536987 -179.649
RightUpLeg  -8.91672 -14.6649 0.334271
RightLeg  5.31158 -1.11714 -0.0306621
RightFoot  4.37751 0.00773953 0.0386549
RightToes  -23.2631 -0.111275 -0.199671
Spine  -2.24754 -0.226925 -0.250298
Spine1  -4.5881 -0.373917 0.00228882
HEad  -67.1811 -1.88649 11.1376
LeftShoulder1  -1.94126e-019 -3.10601e-018 -2.51263e-017
LeftArm  -12.8713 24.1169 -81.1095
LeftForeArm  31.4951 -19.4798 -3.12138
LeftHand  -0.453453 -1.1093 8.21787
RightShoulder  -4.96962e-017 0 -2.36833e-017
RightArm  -38.6177 -21.6543 75.1367
RightForeArm  60.7325 12.1804 1.44791
RightHand  -0.457889 -0.591562 -11.0687
LeftUpLeg  -7.244 4.72908 3.75386
LeftLeg  5.36472 13.5567 0.393854
LeftFoot  5.29667 -0.0477209 1.37478
LeftToes  -20.9929 1.70063e-006 7.6642e-008
5
root  -15.0114 34.6083 -16.6157 -170.515 -0.556473 -179.626
RightUpLeg  -8.9324 -14.6428 0.342479
RightLeg  5.29003 -1.18034 -0.0320112
RightFoot  4.34793 0.0076523 0.0399013
RightToes  -23.2223 -0.111275 -0.199671
Spine  -2.31526 -0.29668 -0.222029
Spine1  -4.72146 -0.517486 0.0593461
HEad  -66.3113 -2.1704 11.0469
LeftShoulder1  -1.94126e-019 -3.10601e-018 -2.51263e-017
LeftArm  -13.012 24.3439 -81.1285
LeftForeArm  31.5957 -18.8088 -3.02067
LeftHand  -0.45412 -1.15364 8.20378
RightShoulder  -4.96962e-017 0 -2.36833e-017
RightArm  -38.558 -21.9228 75.0132
RightForeArm  60.2336 12.4132 1.42558
RightHand  -0.457515 -0.549072 -10.9667
LeftUpLeg  -7.3176 4.86465 3.74984
LeftLeg  5.44827 13.3992 0.408722
LeftFoot  5.22325 -0.0455987 1.34179
LeftToes  -21.1012 1.70063e-006 7.6642e-008
6
root  -15.0246 34.6054 -16.63 -170.465 -0.670105 -179.627
RightUpLeg  -8.93382 -14.7759 0.335137
RightLeg  5.26384 -1.14282 -0.0304413
RightFoot  4.34699 0.00764841 0.039957
RightToes  -23.2814 -0.111275 -0.199671
Spine  -2.37218 -0.385786 -0.201312
Spine1  -4.83361 -0.698565 0.101659
HEad  -65.6675 -2.35954 10.9298
LeftShoulder1  -1.94126e-019 -3.10601e-018 -2.51263e-017
LeftArm  -13.21 24.4744 -81.1408
LeftForeArm  31.8786 -17.9091 -2.89764
LeftHand  -0.45717 -1.14687 8.26598
RightShoulder  -4.96962e-017 0 -2.36833e-017
RightArm  -38.7096 -22.0931 74.8442
RightForeArm  60.0304 12.458 1.42162
RightHand  -0.453251 -0.605384 -10.9723
LeftUpLeg  -7.39701 4.78231 3.73887
LeftLeg  5.52571 13.3728 0.425848
LeftFoot  5.155 -0.0443547 1.32246
LeftToes  -21.0864 1.70063e-006 7.6642e-008
7
root  -15.039 34.6027 -16.6389 -170.439 -0.814453 -179.641
RightUpLeg  -8.94042 -14.9085 0.309358
RightLeg  5.28498 -1.16608 -0.0315099
RightFoot  4.33417 0.00780802 0.0376762
RightToes  -23.3319 -0.111275 -0.199671
Spine  -2.40357 -0.462617 -0.193587
Spine1  -4.89461 -0.855943 0.118842
HEad  -65.2265 -2.58866 10.8806
LeftShoulder1  -1.94126e-019 -3.10601e-018 -2.51263e-017
LeftArm  -13.566 24.4915 -81.1393
LeftForeArm  32.4437 -16.8984 -2.76396
LeftHand  -0.467973 -1.21562 8.3755
RightShoulder  -4.96962e-017 0 -2.36833e-017
RightArm  -39.0811 -22.2181 74.6553
RightForeArm  60.0943 12.3786 1.43001
RightHand  -0.448914 -0.662485 -11.0071
LeftUpLeg  -7.46377 4.78786 3.7087
LeftLeg  5.57665 13.2344 0.433179
LeftFoot  5.11201 -0.0427896 1.29813
LeftToes  -21.0421 1.70063e-006 7.6642e-008
